<svg version="1.1" id="Layer_1" xmlns="http://www.w3.org/2000/svg" x="0" y="0" viewBox="0 0 916.57 268.67" xml:space="preserve"><style>.st0{fill:#939597}.st1{fill:#c24e00}</style><path class="st0" d="M445.99 146.67c-1.74 0-3.26-.18-4.56-.55v-6.42c1.33.33 2.54.5 3.63.5 1.69 0 2.9-.53 3.64-1.58.73-1.05 1.1-2.7 1.1-4.94V99.56h7.72v34.06c0 4.25-.97 7.49-2.91 9.71-1.95 2.23-4.82 3.34-8.62 3.34zm52.97-28.96c0 6.03-1.5 10.66-4.48 13.89-2.99 3.24-7.27 4.86-12.85 4.86s-9.86-1.62-12.85-4.86-4.48-7.88-4.48-13.94 1.5-10.69 4.5-13.88c3-3.19 7.29-4.79 12.88-4.79 5.59 0 9.87 1.61 12.83 4.83 2.96 3.22 4.45 7.85 4.45 13.89zm-26.57 0c0 4.07.77 7.13 2.31 9.19 1.54 2.06 3.85 3.09 6.92 3.09 6.16 0 9.24-4.09 9.24-12.27 0-8.2-3.06-12.3-9.19-12.3-3.07 0-5.39 1.03-6.95 3.1-1.55 2.06-2.33 5.13-2.33 9.19zm33.34 18.25v-36.4h7.72v36.4h-7.72zm48.41 0h-9.81l-15.84-27.54h-.22c.31 4.86.47 8.33.47 10.41v17.13h-6.9v-36.4h9.74l15.81 27.26h.17c-.25-4.73-.37-8.07-.37-10.03V99.56h6.95v36.4zm22.44 0h-7.72v-29.98h-9.89v-6.42h27.49v6.42h-9.88v29.98zm42.67-30.5c-2.9 0-5.15 1.09-6.75 3.27-1.59 2.18-2.39 5.23-2.39 9.13 0 8.12 3.04 12.17 9.14 12.17 2.56 0 5.65-.64 9.29-1.92v6.47c-2.99 1.24-6.32 1.87-10.01 1.87-5.29 0-9.35-1.61-12.15-4.82-2.8-3.21-4.21-7.82-4.21-13.83 0-3.78.69-7.1 2.06-9.95s3.36-5.03 5.94-6.55c2.58-1.52 5.61-2.28 9.08-2.28 3.54 0 7.09.86 10.66 2.56l-2.49 6.28c-1.36-.65-2.73-1.21-4.11-1.69-1.38-.46-2.73-.71-4.06-.71zm37.23 30.5h-20.96v-36.4h20.96v6.32h-13.24v7.99h12.32v6.32h-12.32v9.39h13.24v6.38zm39.12 0h-9.81l-15.84-27.54h-.22c.31 4.86.47 8.33.47 10.41v17.13h-6.9v-36.4h9.74l15.81 27.26h.17c-.25-4.73-.37-8.07-.37-10.03V99.56h6.95v36.4zm22.44 0h-7.72v-29.98h-9.89v-6.42h27.49v6.42h-9.88v29.98zm35.68 0h-20.96v-36.4h20.96v6.32h-13.24v7.99h12.32v6.32h-12.32v9.39h13.24v6.38zM768.27 122v13.97h-7.72v-36.4h10.61c4.95 0 8.61.9 10.98 2.7 2.37 1.8 3.56 4.54 3.56 8.2 0 2.14-.59 4.05-1.77 5.71-1.18 1.67-2.85 2.97-5 3.92 5.48 8.18 9.05 13.47 10.71 15.86h-8.57L772.38 122h-4.11zm0-6.28h2.49c2.44 0 4.24-.41 5.4-1.22 1.16-.81 1.74-2.09 1.74-3.83 0-1.73-.59-2.95-1.78-3.68s-3.02-1.1-5.52-1.1h-2.34v9.83zm45.26 20.24h-7.59v-36.4h20.86v6.32h-13.27v9.39h12.35v6.3h-12.35v14.39zm52.66-18.25c0 6.03-1.5 10.66-4.48 13.89-2.99 3.24-7.27 4.86-12.85 4.86s-9.86-1.62-12.85-4.86-4.48-7.88-4.48-13.94 1.5-10.69 4.49-13.88c3-3.19 7.29-4.79 12.89-4.79 5.59 0 9.87 1.61 12.83 4.83 2.97 3.22 4.45 7.85 4.45 13.89zm-26.56 0c0 4.07.77 7.13 2.31 9.19 1.55 2.06 3.85 3.09 6.92 3.09 6.16 0 9.24-4.09 9.24-12.27 0-8.2-3.06-12.3-9.19-12.3-3.07 0-5.39 1.03-6.95 3.1-1.55 2.06-2.33 5.13-2.33 9.19zm41.06 4.29v13.97h-7.72v-36.4h10.61c4.95 0 8.61.9 10.98 2.7 2.37 1.8 3.56 4.54 3.56 8.2 0 2.14-.59 4.05-1.77 5.71-1.18 1.67-2.85 2.97-5 3.92 5.48 8.18 9.05 13.47 10.71 15.86h-8.57L884.8 122h-4.11zm0-6.28h2.49c2.44 0 4.24-.41 5.4-1.22 1.16-.81 1.74-2.09 1.74-3.83 0-1.73-.59-2.95-1.78-3.68s-3.02-1.1-5.52-1.1h-2.34v9.83zm-401.06 78.09h-7.69V178.1h-14.42v15.71h-7.72v-36.4h7.72v14.27h14.42V157.4h7.69v36.41zm41.46-18.25c0 6.02-1.5 10.66-4.48 13.89-2.99 3.24-7.27 4.86-12.85 4.86s-9.86-1.62-12.85-4.86-4.48-7.88-4.48-13.94 1.5-10.69 4.49-13.88c3-3.19 7.29-4.79 12.89-4.79 5.59 0 9.87 1.61 12.83 4.83 2.97 3.21 4.45 7.84 4.45 13.89zm-26.57 0c0 4.07.77 7.13 2.31 9.19 1.55 2.06 3.85 3.09 6.92 3.09 6.16 0 9.24-4.09 9.24-12.28 0-8.2-3.06-12.3-9.19-12.3-3.07 0-5.39 1.03-6.95 3.1-1.55 2.06-2.33 5.13-2.33 9.2zm62.98-18.16v23.55c0 2.69-.6 5.05-1.81 7.07-1.2 2.03-2.94 3.58-5.22 4.65-2.27 1.08-4.96 1.62-8.07 1.62-4.68 0-8.32-1.2-10.91-3.6-2.59-2.4-3.88-5.68-3.88-9.85V157.4h7.69v22.28c0 2.81.56 4.86 1.69 6.18 1.13 1.31 3 1.97 5.6 1.97 2.52 0 4.35-.66 5.49-1.98 1.14-1.32 1.71-3.39 1.71-6.21V157.4h7.71zm29.63 26.3c0 3.29-1.18 5.88-3.55 7.77-2.36 1.89-5.66 2.84-9.87 2.84-3.88 0-7.32-.73-10.31-2.19v-7.17c2.46 1.1 4.54 1.87 6.24 2.31 1.7.45 3.26.67 4.67.67 1.69 0 2.99-.32 3.9-.97.9-.65 1.36-1.61 1.36-2.89 0-.71-.2-1.35-.6-1.91-.4-.56-.98-1.09-1.75-1.61-.77-.51-2.35-1.34-4.72-2.46-2.22-1.05-3.89-2.05-5.01-3.01-1.11-.96-2-2.08-2.66-3.36-.66-1.28-1-2.77-1-4.48 0-3.22 1.09-5.75 3.27-7.59 2.18-1.84 5.2-2.76 9.05-2.76 1.89 0 3.7.22 5.42.67 1.72.45 3.51 1.08 5.39 1.89l-2.49 6c-1.94-.8-3.55-1.35-4.82-1.67-1.27-.31-2.52-.47-3.75-.47-1.46 0-2.58.34-3.36 1.02-.78.68-1.17 1.57-1.17 2.66 0 .68.16 1.27.47 1.78.32.51.82 1 1.51 1.47.69.48 2.32 1.33 4.89 2.55 3.4 1.62 5.74 3.26 6.99 4.89 1.27 1.64 1.9 3.64 1.9 6.02zm5.83 10.11v-36.4h7.72v36.4h-7.72zm48.41 0h-9.81l-15.84-27.54h-.22c.31 4.86.47 8.33.47 10.41v17.13h-6.9v-36.4h9.74l15.81 27.26h.17c-.25-4.73-.37-8.07-.37-10.03V157.4h6.95v36.41zm22.22-20.45h14.44v18.87c-2.34.76-4.54 1.3-6.61 1.61-2.07.31-4.18.46-6.34.46-5.5 0-9.69-1.61-12.59-4.84-2.9-3.23-4.34-7.86-4.34-13.91 0-5.88 1.68-10.46 5.04-13.74 3.36-3.29 8.02-4.93 13.98-4.93 3.74 0 7.34.75 10.81 2.24l-2.57 6.18c-2.66-1.33-5.42-1.99-8.29-1.99-3.33 0-6.01 1.12-8.02 3.36-2.01 2.24-3.01 5.25-3.01 9.04 0 3.95.81 6.97 2.43 9.05 1.62 2.08 3.97 3.13 7.06 3.13 1.61 0 3.24-.17 4.9-.5v-7.6h-6.9v-6.43zm56.31 10.34c0 3.29-1.18 5.88-3.55 7.77-2.36 1.89-5.66 2.84-9.87 2.84-3.88 0-7.32-.73-10.31-2.19v-7.17c2.46 1.1 4.54 1.87 6.24 2.31 1.7.45 3.26.67 4.67.67 1.69 0 2.99-.32 3.9-.97.9-.65 1.36-1.61 1.36-2.89 0-.71-.2-1.35-.6-1.91-.4-.56-.98-1.09-1.75-1.61-.77-.51-2.35-1.34-4.72-2.46-2.22-1.05-3.89-2.05-5.01-3.01-1.11-.96-2-2.08-2.66-3.36-.66-1.28-1-2.77-1-4.48 0-3.22 1.09-5.75 3.27-7.59 2.18-1.84 5.2-2.76 9.05-2.76 1.89 0 3.7.22 5.42.67 1.72.45 3.51 1.08 5.39 1.89l-2.49 6c-1.94-.8-3.55-1.35-4.82-1.67-1.27-.31-2.52-.47-3.75-.47-1.46 0-2.58.34-3.36 1.02-.78.68-1.17 1.57-1.17 2.66 0 .68.16 1.27.47 1.78.32.51.82 1 1.51 1.47.69.48 2.32 1.33 4.89 2.55 3.4 1.62 5.74 3.26 6.99 4.89 1.27 1.64 1.9 3.64 1.9 6.02zm19.88 10.11h-7.72v-29.98h-9.89v-6.43h27.49v6.43h-9.88v29.98zm44.35-36.41v23.55c0 2.69-.6 5.05-1.81 7.07-1.2 2.03-2.94 3.58-5.22 4.65-2.27 1.08-4.96 1.62-8.07 1.62-4.68 0-8.32-1.2-10.91-3.6-2.59-2.4-3.88-5.68-3.88-9.85V157.4h7.69v22.28c0 2.81.56 4.86 1.69 6.18 1.13 1.31 3 1.97 5.6 1.97 2.52 0 4.35-.66 5.49-1.98 1.14-1.32 1.71-3.39 1.71-6.21V157.4h7.71zm38.34 17.86c0 5.99-1.7 10.58-5.12 13.77-3.41 3.19-8.34 4.78-14.78 4.78h-10.31v-36.4h11.43c5.94 0 10.56 1.57 13.84 4.71 3.3 3.13 4.94 7.51 4.94 13.14zm-8.01.2c0-7.82-3.45-11.73-10.36-11.73h-4.11v23.7h3.31c7.44 0 11.16-3.99 11.16-11.97zm14.79 18.35v-36.4h7.72v36.4h-7.72zm37.08 0h-20.96v-36.4h20.96v6.32h-13.24v7.99h12.32v6.33h-12.32v9.39h13.24v6.37zm28.32-10.11c0 3.29-1.18 5.88-3.55 7.77-2.36 1.89-5.66 2.84-9.87 2.84-3.88 0-7.32-.73-10.31-2.19v-7.17c2.46 1.1 4.54 1.87 6.24 2.31 1.7.45 3.26.67 4.67.67 1.69 0 2.99-.32 3.9-.97.9-.65 1.36-1.61 1.36-2.89 0-.71-.2-1.35-.6-1.91-.4-.56-.98-1.09-1.75-1.61s-2.35-1.34-4.72-2.46c-2.22-1.05-3.89-2.05-5.01-3.01-1.11-.96-2-2.08-2.66-3.36-.66-1.28-1-2.77-1-4.48 0-3.22 1.09-5.75 3.27-7.59 2.18-1.84 5.2-2.76 9.05-2.76 1.89 0 3.7.22 5.42.67 1.72.45 3.51 1.08 5.39 1.89l-2.49 6c-1.94-.8-3.55-1.35-4.82-1.67-1.27-.31-2.52-.47-3.75-.47-1.46 0-2.58.34-3.36 1.02-.78.68-1.17 1.57-1.17 2.66 0 .68.16 1.27.47 1.78.32.51.82 1 1.51 1.47.69.48 2.32 1.33 4.89 2.55 3.4 1.62 5.74 3.26 6.99 4.89 1.27 1.64 1.9 3.64 1.9 6.02zm-421.41 42.98c0 4.46-1.13 7.97-3.38 10.52-2.26 2.55-5.39 3.83-9.41 3.83-4.1 0-7.27-1.26-9.5-3.77-2.23-2.51-3.35-6.05-3.35-10.63 0-4.54 1.12-8.05 3.36-10.55 2.24-2.5 5.41-3.75 9.53-3.75 4 0 7.13 1.27 9.38 3.81 2.24 2.56 3.37 6.07 3.37 10.54zm-22.21 0c0 3.77.8 6.64 2.41 8.59 1.61 1.95 3.94 2.93 7.01 2.93 3.09 0 5.42-.97 7-2.92 1.58-1.94 2.36-4.81 2.36-8.6 0-3.75-.78-6.59-2.35-8.53-1.57-1.94-3.89-2.91-6.97-2.91-3.09 0-5.44.98-7.04 2.93-1.62 1.95-2.42 4.79-2.42 8.51zm31.08 13.97h-3.24v-27.87h15.53v2.88h-12.3v10.2h11.55v2.88H482.1v11.91zm47.03 0h-3.24v-13.11h-14.68v13.11h-3.24v-27.87h3.24v11.86h14.68v-11.86h3.24v27.87zm24.58 0l-3.47-8.86h-11.17l-3.43 8.86h-3.28l11.02-27.98h2.73l10.96 27.98h-3.36zm-4.48-11.78l-3.24-8.63c-.42-1.09-.85-2.43-1.29-4.02-.28 1.22-.68 2.56-1.2 4.02l-3.28 8.63h9.01zm14.32.19v11.59h-3.24v-27.87h7.64c3.42 0 5.94.65 7.58 1.96 1.63 1.31 2.45 3.28 2.45 5.91 0 3.69-1.87 6.18-5.6 7.47l7.57 12.52h-3.83l-6.75-11.59h-5.82zm0-2.78H568c2.29 0 3.96-.46 5.03-1.36 1.07-.91 1.6-2.27 1.6-4.09 0-1.84-.54-3.17-1.63-3.98-1.09-.81-2.83-1.22-5.23-1.22h-4.21v10.65zm36.22-13.5h3.49l-10.04 27.87h-3.2l-9.99-27.87h3.43l6.4 18.03c.74 2.07 1.32 4.09 1.75 6.04.46-2.06 1.06-4.11 1.79-6.16l6.37-17.91zm24.25 27.87l-3.47-8.86h-11.17l-3.43 8.86h-3.28l11.02-27.98h2.73l10.96 27.98h-3.36zm-4.48-11.78l-3.24-8.63c-.42-1.09-.85-2.43-1.29-4.02-.28 1.22-.68 2.56-1.2 4.02l-3.28 8.63h9.01zm14.32.19v11.59h-3.24v-27.87h7.64c3.42 0 5.94.65 7.58 1.96 1.63 1.31 2.45 3.28 2.45 5.91 0 3.69-1.87 6.18-5.6 7.47l7.57 12.52h-3.83l-6.75-11.59h-5.82zm0-2.78h4.44c2.29 0 3.96-.46 5.03-1.36 1.07-.91 1.6-2.27 1.6-4.09 0-1.84-.54-3.17-1.63-3.98-1.09-.81-2.83-1.22-5.23-1.22h-4.21v10.65zm42.55.17c0 4.6-1.25 8.12-3.74 10.55-2.5 2.43-6.09 3.65-10.78 3.65h-7.72v-27.87h8.54c4.33 0 7.7 1.2 10.1 3.6 2.4 2.41 3.6 5.76 3.6 10.07zm-3.43.12c0-3.63-.91-6.37-2.73-8.22-1.83-1.84-4.53-2.76-8.13-2.76h-4.71v22.26h3.95c3.86 0 6.77-.95 8.71-2.85 1.94-1.9 2.91-4.71 2.91-8.43zm39.66-13.79v18.03c0 3.18-.96 5.67-2.88 7.49-1.92 1.82-4.56 2.73-7.91 2.73-3.35 0-5.95-.92-7.79-2.75-1.84-1.83-2.75-4.34-2.75-7.55v-17.96h3.24v18.18c0 2.33.64 4.11 1.91 5.36s3.14 1.87 5.61 1.87c2.35 0 4.16-.63 5.43-1.88 1.27-1.25 1.91-3.05 1.91-5.39v-18.15h3.23zm28.56 27.87h-3.7l-15.23-23.39h-.15c.2 2.75.31 5.26.31 7.55v15.84h-2.99v-27.87h3.66l15.19 23.29h.15c-.03-.34-.08-1.45-.17-3.31-.09-1.86-.12-3.19-.09-3.99v-15.99h3.03v27.87zm7.08 0v-27.87h3.24v27.87h-3.24zm26.21-27.87h3.49l-10.04 27.87h-3.2l-9.99-27.87h3.43l6.4 18.03c.74 2.07 1.32 4.09 1.75 6.04.46-2.06 1.06-4.11 1.79-6.16l6.37-17.91zm22.27 27.87h-15.53v-27.87h15.53v2.88h-12.3v8.98h11.55v2.86h-11.55v10.26h12.3v2.89zm8.83-11.59v11.59h-3.24v-27.87H810c3.42 0 5.94.65 7.58 1.96 1.63 1.31 2.45 3.28 2.45 5.91 0 3.69-1.87 6.18-5.6 7.47l7.57 12.52h-3.83l-6.75-11.59h-5.82zm0-2.78h4.44c2.29 0 3.96-.46 5.03-1.36 1.07-.91 1.6-2.27 1.6-4.09 0-1.84-.54-3.17-1.63-3.98-1.09-.81-2.83-1.22-5.23-1.22h-4.21v10.65zm36.03 6.96c0 2.45-.89 4.37-2.67 5.74-1.78 1.37-4.2 2.06-7.24 2.06-3.3 0-5.85-.43-7.62-1.28v-3.13c1.14.48 2.39.87 3.74 1.14 1.35.28 2.68.42 4 .42 2.16 0 3.79-.41 4.88-1.23 1.09-.82 1.64-1.96 1.64-3.42 0-.97-.2-1.76-.58-2.37-.39-.62-1.03-1.18-1.94-1.71-.91-.52-2.29-1.11-4.15-1.77-2.59-.93-4.44-2.03-5.56-3.3-1.11-1.27-1.67-2.93-1.67-4.97 0-2.15.81-3.86 2.42-5.13 1.61-1.27 3.75-1.91 6.41-1.91 2.77 0 5.32.51 7.64 1.53l-1.01 2.82c-2.3-.97-4.54-1.45-6.71-1.45-1.72 0-3.06.37-4.02 1.11-.97.74-1.45 1.76-1.45 3.07 0 .97.18 1.76.53 2.38.36.62.96 1.18 1.8 1.7.85.51 2.14 1.08 3.88 1.7 2.92 1.04 4.94 2.16 6.03 3.35 1.1 1.19 1.65 2.74 1.65 4.65zm5.12 7.41v-27.87h3.24v27.87h-3.24zm18.87 0h-3.24v-24.99h-8.83v-2.88h20.89v2.88h-8.83v24.99z"/><path class="st0" d="M885.14 226.72l7.43-13.93h3.51l-9.3 17.06v10.81h-3.28V230l-9.28-17.21h3.55l7.37 13.93z"/><path class="st1" d="M16.55 218.64h12.36v3.19c0 8.1 4.42 10.81 9.07 10.81 4.62 0 8.77-2.8 8.77-10.22v-37.37H29.09v-10.7h30.1v48.27c0 14.95-10.8 21.41-21.4 21.41-10.53 0-21.24-6.65-21.24-21.41v-3.98zm97.07-45.46c16.71 0 25.29 9.37 25.29 9.37l-5.98 9.25s-7.81-7.22-18.73-7.22c-14.47 0-22.97 10.81-22.97 23.54 0 13.01 8.78 24.51 23.07 24.51 11.86 0 19.88-8.69 19.88-8.69l6.56 8.97s-9.44 11.1-26.92 11.1c-20.94 0-35.43-15.53-35.43-35.7.01-19.87 15.07-35.13 35.23-35.13zm47.58 1.16h12.46v29.06h31.35v-29.06h12.46v68.52h-12.46V214.1h-31.35v28.76H161.2v-68.52zm84.16 50.95s7.41 7.24 17.07 7.24c5.2 0 9.94-2.69 9.94-8.3 0-12.25-32.35-10.13-32.35-31.16 0-11.41 9.86-19.89 22.98-19.89 13.54 0 20.53 7.35 20.53 7.35l-5.45 10.12s-6.58-5.99-15.17-5.99c-5.8 0-10.33 3.38-10.33 8.22 0 12.15 32.28 9.15 32.28 31.07 0 10.91-8.32 20.07-22.63 20.07-15.24 0-23.64-9.37-23.64-9.37l6.77-9.36z"/><path class="st1" d="M279.25 23.32L161.2 101.68v48.34l69.55-44.95 81.13 51.13v87.82h88.43V101.68z"/></svg>