<?xml version="1.0" encoding="UTF-8"?>
<svg width="65px" height="65px" viewBox="0 0 65 65" version="1.1" xmlns="http://www.w3.org/2000/svg" xmlns:xlink="http://www.w3.org/1999/xlink">
    <!-- Generator: Sketch 52.6 (67491) - http://www.bohemiancoding.com/sketch -->
    <title>RIAI LOGO</title>
    <desc>Created with Sketch.</desc>
    <g id="Symbols" stroke="none" stroke-width="1" fill="none" fill-rule="evenodd">
        <g id="Header-/-Sticky-Header">
            <g id="Header-/-RIAI-LOGO">
                <g id="Group-11">
                    <polygon id="Fill-1" fill="#1E1869" points="0 0 0.00114652603 65 65 65 65 0"></polygon>
                    <g id="Group-10" transform="translate(7.831325, 24.277108)" fill="#FEFEFE">
                        <path d="M5.17844336,8.02096026 L5.17844336,1.83631721 C5.68395175,1.71802913 6.2126028,1.64696278 6.85583273,1.64696278 C8.76306052,1.64696278 9.86619418,2.47568063 9.86619418,4.41691422 C9.86619418,6.8259234 8.08466282,7.85802194 5.17844336,8.02096026 M11.5664993,12.25385 C10.7068174,10.914109 10.0195711,9.65127855 9.3645429,8.19956123 C11.4841387,7.42694839 12.7612961,5.95793203 12.7612961,3.94352814 C12.7612961,1.03144398 10.6473725,0.628890487 7.47637378,0.628890487 L0.100216811,0.628890487 L0.100216811,1.36293113 L0.74344674,1.45760834 C2.00721771,1.64696278 2.2601988,2.07312714 2.2601988,3.58843014 L2.2601988,12.4195936 C2.2601988,13.911052 2.00721771,14.361061 0.74344674,14.5501816 L0.100216811,14.6448588 L0.100216811,15.3788995 L7.1315027,15.3788995 L7.1315027,14.6448588 L6.51118855,14.5501816 C5.33930757,14.361061 5.17844336,13.9585075 5.17844336,12.514037 L5.17844336,9.27116706 C5.73227908,9.22675058 6.26750991,9.14656716 6.78141319,9.03809746 C7.50609622,10.7483654 8.14161192,12.0457939 8.87809318,13.2955332 C9.8432784,14.9527351 10.693431,15.4735767 12.3018461,15.4735767 C12.8992445,15.4735767 13.4737271,15.426355 14.1632424,15.3316778 L14.1632424,14.6448588 C13.0371929,14.3133717 12.5087688,13.7216975 11.5664993,12.25385" id="Fill-2"></path>
                        <path d="M28.7942842,10.0044596 L30.879166,3.1238806 L33.3141373,10.0044596 L28.7942842,10.0044596 Z M37.7393777,13.0350656 L32.9368211,0.202679374 L30.2713307,0.770976443 L26.4108167,12.4431577 C25.7905025,14.3135587 25.7905025,14.4082359 24.5954789,14.6450459 L24.5954789,15.3788527 L29.4440939,15.3788527 L29.4440939,14.6450459 L28.8006371,14.5267578 C27.7206461,14.3371696 27.6287561,13.816328 28.0194587,12.5614458 L28.4426065,11.1646646 L33.7245792,11.1646646 L34.3614563,12.9639993 C34.7290162,14.0056824 34.5454631,14.4082359 33.5571352,14.5501349 L32.9136784,14.6450459 L32.9136784,15.3788527 L39.5317997,15.3788527 L39.5317997,14.6450459 C38.612446,14.4793023 38.244886,14.4082359 37.7393777,13.0350656 Z" id="Fill-4"></path>
                        <path d="M23.3087241,1.36293113 L22.6423515,1.45760834 C21.3785805,1.64696278 21.1487421,2.07312714 21.1487421,3.58843014 L21.1487421,12.4195936 C21.1487421,13.911052 21.3096063,14.4082827 22.3206231,14.5501816 L22.9869957,14.6448588 L22.9869957,15.3788995 L16.1163471,15.3788995 L16.1163471,14.6448588 L16.7827197,14.5501816 C17.7937365,14.4082827 17.9546007,13.911052 17.9546007,12.4195936 L17.9546007,3.58843014 C17.9546007,2.07312714 17.7247622,1.64696278 16.4609913,1.45760834 L15.7946187,1.36293113 L15.7946187,0.628890487 L23.3087241,0.628890487 L23.3087241,1.36293113 Z" id="Fill-6"></path>
                        <path d="M48.3326372,1.36293113 L47.6660377,1.45760834 C46.4022667,1.64696278 46.1724283,2.07312714 46.1724283,3.58843014 L46.1724283,12.4195936 C46.1724283,13.9346628 46.4022667,14.361061 47.6660377,14.5501816 L48.3326372,14.6448588 L48.3326372,15.3788995 L41.1402602,15.3788995 L41.1402602,14.6448588 L41.8066328,14.5501816 C42.8176496,14.4082827 42.9785138,13.911052 42.9785138,12.4195936 L42.9785138,3.58843014 C42.9785138,2.07312714 42.7489023,1.64696278 41.4849044,1.45760834 L40.8185318,1.36293113 L40.8185318,0.628890487 L48.3326372,0.628890487 L48.3326372,1.36293113 Z" id="Fill-8"></path>
                    </g>
                </g>
            </g>
        </g>
    </g>
</svg>